<?xml version="1.0" standalone="no"?>
<!DOCTYPE svg PUBLIC "-//W3C//DTD SVG 20010904//EN"
 "http://www.w3.org/TR/2001/REC-SVG-20010904/DTD/svg10.dtd">
<svg version="1.0" xmlns="http://www.w3.org/2000/svg"
 width="212.000000pt" height="238.000000pt" viewBox="0 0 212.000000 238.000000"
 preserveAspectRatio="xMidYMid meet">

<g transform="translate(0.000000,238.000000) scale(0.100000,-0.100000)"
fill="#000000" stroke="none">
<path d="M557 2206 c-70 -79 -209 -174 -295 -201 -54 -17 -63 -23 -58 -40 3
-11 17 -58 31 -105 20 -64 28 -115 32 -210 5 -115 3 -139 -28 -295 -64 -322
-39 -542 81 -723 100 -149 232 -256 445 -360 61 -30 148 -79 193 -109 l84 -54
91 59 c51 33 135 80 188 105 375 174 562 436 563 782 0 83 -8 150 -32 270 -17
88 -34 192 -37 230 -8 86 16 256 50 356 16 50 20 71 12 74 -147 51 -243 111
-341 215 l-66 71 -63 -30 c-227 -108 -516 -106 -739 5 -26 13 -49 24 -51 24
-2 0 -29 -29 -60 -64z m193 -269 c0 -29 8 -54 26 -80 14 -21 24 -41 21 -43 -2
-3 -59 -3 -125 -2 l-121 3 45 83 45 82 55 0 54 0 0 -43z m260 -42 l0 -85 -29
0 c-23 0 -37 11 -70 55 -22 30 -41 57 -41 60 0 3 27 5 60 5 57 0 60 1 60 25 0
14 5 25 10 25 6 0 10 -35 10 -85z m482 0 l46 -85 -99 0 -99 0 0 48 c-1 26 -7
64 -14 85 l-14 37 67 0 66 0 47 -85z m-290 18 c12 -11 18 -30 18 -60 l0 -43
-50 0 -50 0 0 60 0 60 32 0 c17 0 40 -7 50 -17z m-693 -89 c14 -31 14 -53 0
-93 -12 -33 -42 -43 -53 -15 -10 25 -7 91 5 118 13 29 32 25 48 -10z m1127
-29 c9 -23 21 -35 33 -35 14 0 18 -5 14 -20 -3 -12 0 -20 7 -20 10 0 10 -3 1
-14 -8 -10 -9 -16 -1 -21 16 -10 12 -45 -5 -45 -8 0 -15 4 -15 9 0 5 -9 11
-20 14 -27 7 -26 -6 2 -18 12 -6 23 -16 26 -22 7 -22 -28 -26 -51 -7 l-21 19
16 -25 c9 -14 23 -24 32 -24 10 1 16 -6 16 -17 0 -10 5 -19 10 -19 6 0 10 -4
10 -10 0 -16 -32 -12 -54 8 -21 17 -21 17 -2 -5 10 -12 28 -23 40 -25 25 -4
37 -48 12 -48 -9 0 -16 4 -16 8 0 10 -36 9 -46 -1 -4 -4 -12 -3 -18 1 -6 5
-22 3 -36 -5 -25 -14 -25 -14 10 -11 25 2 34 -1 32 -10 -1 -8 2 -11 9 -6 6 3
15 0 20 -7 7 -11 9 -11 9 -1 0 7 -7 15 -15 18 -8 4 -13 10 -10 14 6 9 65 -11
65 -22 0 -4 -10 -14 -21 -22 -25 -17 -19 -46 10 -46 15 0 18 -5 13 -22 -3 -14
-2 -19 6 -14 7 4 12 2 12 -3 0 -6 -5 -11 -12 -11 -9 0 -9 -3 0 -12 17 -17 14
-50 -7 -75 -24 -29 -35 -29 -54 1 -19 29 -13 38 19 26 15 -6 24 -6 24 0 0 10
-19 14 -50 12 -8 0 -17 4 -21 9 -3 6 -11 3 -19 -6 -11 -13 -11 -16 0 -13 7 2
23 -11 34 -29 12 -18 29 -32 39 -33 9 0 17 -7 17 -15 0 -8 5 -15 10 -15 6 0
10 -4 10 -10 0 -15 -36 -12 -50 5 -7 8 -16 15 -21 15 -18 0 30 -39 53 -42 15
-2 24 -11 26 -25 4 -29 -25 -83 -44 -83 -24 0 -11 -25 15 -28 16 -3 21 -8 16
-19 -3 -9 0 -20 7 -24 9 -6 8 -10 -6 -15 -14 -5 -24 0 -38 19 -12 16 -29 27
-43 27 -25 0 -55 -24 -55 -43 0 -6 7 -1 16 11 21 30 61 29 76 -2 6 -14 20 -26
32 -28 29 -4 32 -32 7 -67 -32 -45 -138 -49 -155 -5 -6 15 59 48 77 38 8 -5 9
-4 2 4 -11 12 -65 4 -65 -9 0 -5 -7 -9 -15 -9 -18 0 -20 31 -3 48 8 8 8 15 -3
28 -11 13 -11 18 -1 21 6 3 12 13 12 24 0 10 5 19 11 19 6 0 1 14 -11 30 -24
34 -20 59 10 67 11 3 20 14 20 24 0 10 8 23 18 29 10 7 11 10 3 7 -8 -2 -19
-12 -25 -23 -17 -29 -30 -35 -40 -17 -6 11 -5 18 1 20 6 2 9 12 6 22 -3 14 3
20 25 24 18 4 31 14 35 26 4 17 2 18 -14 8 -10 -6 -19 -16 -19 -21 0 -4 -7 -3
-15 4 -19 16 -19 30 -1 30 8 0 17 8 21 18 5 14 4 15 -6 5 -21 -21 -41 -15 -37
10 2 14 11 23 26 25 12 2 22 7 22 12 0 5 -6 7 -13 4 -8 -3 -20 2 -27 11 -10
12 -10 15 2 15 19 0 16 42 -6 74 -20 31 -13 66 12 67 12 0 11 3 -5 9 -22 9
-32 30 -14 30 5 0 7 8 4 19 -3 13 2 20 19 26 13 4 26 7 31 6 4 -1 7 8 7 19 0
10 10 24 22 31 17 9 18 13 7 19 -22 12 -62 5 -67 -11 -2 -8 0 -10 5 -4 4 6 19
11 32 13 24 2 24 2 5 -20 -10 -13 -23 -26 -29 -30 -16 -12 -37 17 -38 53 -2
28 2 35 21 37 12 2 22 7 22 12 0 4 -8 6 -19 3 -11 -3 -21 2 -24 11 -4 9 -2 16
3 16 6 0 10 9 10 20 0 18 21 26 53 21 4 -1 12 10 17 24 13 33 18 32 36 -10z
m-793 -30 l18 -25 -37 0 c-20 0 -52 -10 -71 -22 -35 -21 -35 -22 -31 -77 3
-31 3 -51 1 -46 -2 6 -19 9 -38 7 l-35 -4 0 96 0 96 88 0 c81 -1 88 -2 105
-25z m167 -70 c0 -88 -1 -95 -20 -95 -24 0 -25 8 -5 34 19 25 19 93 1 129 -14
25 -13 27 5 27 17 0 19 -8 19 -95z m200 88 c0 -17 -53 -73 -71 -73 -16 0 -19
7 -19 40 l0 40 45 0 c25 0 45 -3 45 -7z m230 -89 c0 -92 -1 -95 -21 -92 -15 2
-27 17 -39 47 -9 25 -28 54 -42 65 -22 18 -24 25 -16 49 9 25 14 27 64 27 l54
0 0 -96z m-1016 22 c29 -19 53 -73 38 -88 -17 -17 -51 1 -83 44 -37 52 -38 70
-3 64 14 -3 36 -12 48 -20z m176 11 c0 -44 -96 -132 -112 -103 -12 21 6 59 39
87 31 26 73 35 73 16z m243 -76 c43 -12 47 -16 47 -45 0 -34 -32 -93 -55 -102
-22 -9 -63 22 -81 60 -14 29 -14 36 0 70 9 21 21 36 28 34 7 -2 34 -10 61 -17z
m450 0 c53 -15 59 -33 33 -96 -18 -43 -46 -59 -79 -44 -26 12 -57 57 -57 84 0
26 30 77 43 73 7 -2 33 -10 60 -17z m-860 -59 c26 -25 39 -60 15 -46 -7 4 -8
3 -4 -5 4 -6 12 -8 18 -5 8 5 9 1 5 -10 -4 -10 -7 -20 -7 -22 0 -3 -13 2 -29
10 -37 20 -81 72 -81 97 0 16 5 18 28 13 15 -4 39 -18 55 -32z m167 24 c0 -22
-51 -86 -80 -101 -27 -14 -29 -14 -35 5 -7 22 26 84 52 99 23 12 63 11 63 -3z
m-17 -143 c-11 -21 -35 -48 -53 -61 -30 -20 -35 -21 -43 -7 -14 25 23 87 63
107 46 23 58 10 33 -39z m-198 31 c6 0 15 -2 22 -2 22 -3 65 -70 58 -90 -8
-28 -38 -18 -80 29 -34 38 -50 90 -22 72 6 -4 17 -8 22 -9z m386 -28 c-26 -11
-35 -4 -26 24 7 21 7 21 27 3 19 -17 19 -18 -1 -27z m122 22 c8 -28 4 -32 -22
-23 -17 5 -19 9 -8 26 15 25 23 24 30 -3z m327 -18 c-22 -14 -30 -12 -30 8 0
28 12 34 29 17 14 -14 14 -17 1 -25z m122 15 c5 -26 1 -29 -26 -19 -12 5 -13
10 -5 25 14 26 26 24 31 -6z m-619 -24 c-4 -17 -1 -19 36 -14 47 6 46 8 35
-105 l-7 -60 -41 12 c-33 10 -42 17 -47 41 -6 25 -7 21 -8 -18 -1 -43 -3 -48
-21 -43 -11 3 -29 9 -40 12 -23 6 -25 26 -9 107 11 53 14 57 53 71 54 19 55
19 49 -3z m107 9 c0 -5 -4 -10 -9 -10 -6 0 -13 5 -16 10 -3 6 1 10 9 10 9 0
16 -4 16 -10z m151 -16 c22 -11 28 -25 41 -88 l15 -75 -41 -9 c-36 -7 -42 -6
-47 13 -3 11 -4 35 -1 54 4 24 2 32 -6 27 -7 -4 -12 -23 -12 -42 0 -23 -5 -34
-14 -34 -8 0 -22 -3 -30 -6 -22 -8 -46 51 -46 112 l0 47 41 -7 c38 -6 40 -5
34 15 -6 18 -4 20 17 14 12 -4 35 -13 49 -21z m192 7 c-4 -17 -1 -19 38 -14
l42 6 -6 -54 c-4 -30 -7 -66 -7 -81 0 -22 -5 -28 -22 -28 -13 0 -35 6 -50 14
-25 13 -27 13 -30 -7 -3 -22 -11 -24 -66 -11 -19 4 -23 10 -19 27 3 12 10 47
16 78 11 52 14 56 54 71 55 21 56 21 50 -1z m107 15 c0 -11 -19 -15 -25 -6 -3
5 1 10 9 10 9 0 16 -2 16 -4z m132 -15 c44 -19 44 -19 57 -91 7 -39 11 -74 8
-77 -3 -2 -21 -8 -40 -13 -32 -7 -35 -6 -40 19 -3 15 -4 47 -1 71 3 35 2 39
-5 20 -5 -14 -9 -39 -10 -55 -1 -27 -6 -32 -38 -41 l-38 -10 2 46 c2 36 1 40
-6 20 -8 -21 -9 -18 -10 22 -1 25 -4 54 -8 64 -6 15 -1 16 39 11 42 -6 46 -5
41 13 -7 24 -5 25 49 1z m-812 -70 c0 -27 -41 -82 -78 -104 -30 -17 -32 -18
-25 -1 4 12 3 15 -5 10 -9 -5 -9 0 -2 19 19 49 31 67 45 61 7 -2 21 4 31 15
22 24 34 24 34 0z m-221 -13 c11 -10 13 -10 7 0 -14 24 17 11 50 -22 41 -41
49 -92 12 -81 -29 8 -98 79 -98 100 0 18 11 19 29 3z m221 -98 c0 -29 -46 -95
-75 -108 -20 -9 -25 -8 -30 7 -7 24 3 50 33 84 38 40 49 33 13 -8 -17 -20 -31
-39 -31 -42 0 -9 69 70 70 80 1 17 20 5 20 -13z m160 -4 l45 -13 3 -77 c2 -42
-1 -76 -5 -76 -22 1 -33 19 -30 56 2 37 0 39 -29 42 -32 3 -44 20 -44 65 0 20
2 21 60 3z m172 -4 c8 -31 -8 -57 -38 -62 -27 -5 -29 -9 -29 -48 1 -23 -3 -43
-7 -43 -31 -6 -33 -2 -30 66 1 38 5 71 8 75 7 7 65 28 80 29 7 1 14 -7 16 -17z
m278 4 l45 -13 3 -77 c2 -42 1 -76 -2 -76 -25 0 -36 16 -36 56 0 42 -1 44 -29
44 -30 0 -41 14 -41 56 0 28 1 28 60 10z m168 -23 c-3 -33 -7 -39 -33 -43 -27
-5 -30 -9 -35 -50 -4 -32 -10 -46 -22 -48 -16 -3 -18 6 -18 72 l0 75 48 15
c65 20 64 21 60 -21z m-930 -17 c30 -34 44 -65 22 -51 -6 3 -7 -1 -4 -9 15
-39 -68 10 -96 56 -27 44 -25 48 13 43 21 -3 43 -16 65 -39z m237 13 c5 -6 4
-9 -5 -9 -19 0 19 -40 39 -40 13 -1 13 -3 -3 -15 -19 -14 -18 -15 10 -16 l29
-1 -30 -8 -30 -7 25 -11 25 -11 -25 -1 c-23 -1 -23 -2 -5 -10 l20 -9 -20 0
c-30 -1 -40 9 -72 69 -36 66 -34 95 5 85 15 -3 31 -11 37 -16z m335 1 c0 -23
-34 -96 -58 -122 -8 -10 -27 -18 -41 -17 -24 0 -24 1 -6 9 l20 9 -20 1 c-17 2
-17 3 -2 7 24 6 21 23 -5 24 l-23 2 23 4 c24 5 29 18 10 26 -9 4 -7 6 3 6 18
1 58 41 41 41 -19 0 -14 18 6 23 39 10 52 7 52 -13z m115 -1 c5 -6 5 -9 -3 -9
-9 0 -9 -5 0 -20 7 -11 19 -20 27 -20 11 0 11 -3 1 -15 -10 -13 -9 -15 11 -16
l24 -1 -25 -8 -25 -7 25 -11 25 -11 -25 -1 -25 -2 25 -7 c22 -6 23 -8 7 -14
-29 -11 -53 8 -85 68 -36 66 -33 100 7 90 14 -4 30 -11 36 -16z m335 -2 c0
-13 -15 -47 -33 -77 -26 -45 -37 -55 -62 -57 -25 -2 -27 -1 -10 7 19 8 18 9
-5 11 -24 2 -24 2 -2 6 12 2 22 9 22 14 0 5 -10 9 -22 10 -22 1 -22 1 2 8 24
7 24 7 5 19 -20 11 -20 11 1 12 11 0 29 9 39 20 10 11 13 20 7 20 -21 0 -12
19 11 23 43 8 47 7 47 -16z m-387 -90 c45 -67 48 -70 127 -97 36 -13 69 -27
74 -32 6 -5 -6 -31 -31 -66 -37 -53 -41 -64 -44 -134 -3 -42 -8 -80 -12 -84
-4 -4 -40 2 -80 14 l-74 22 -69 -20 c-38 -11 -75 -20 -81 -20 -9 0 -13 22 -13
78 0 77 -1 79 -46 141 -25 34 -44 65 -42 67 2 2 35 15 74 30 82 30 86 33 136
101 21 29 40 53 42 53 2 0 20 -24 39 -53z m-481 -3 c-2 -14 -23 -45 -45 -68
-39 -41 -40 -41 -50 -18 -13 28 11 85 44 102 21 12 21 11 -3 -21 -14 -19 -28
-41 -32 -49 -4 -8 1 -4 11 10 60 81 85 97 75 44z m-173 -3 c21 -12 51 -49 51
-65 0 -5 -10 -1 -22 10 -21 17 -21 16 1 -9 31 -35 20 -45 -24 -24 -34 16 -75
68 -75 95 0 14 36 10 69 -7z m291 -64 c0 -1 -5 -18 -10 -37 -16 -54 -14 -172
5 -236 40 -140 139 -235 272 -265 30 -7 50 -16 45 -21 -14 -14 -121 21 -176
56 -108 73 -175 206 -176 350 0 78 16 156 32 156 4 0 8 -1 8 -3z m681 -68 c41
-230 -107 -462 -313 -492 -56 -8 -46 10 12 22 99 21 180 81 233 172 53 90 71
229 43 322 -11 38 -12 47 -1 47 8 0 18 -26 26 -71z m-791 40 c0 -50 -72 -127
-91 -98 -15 24 -10 46 17 78 27 33 58 44 33 13 -8 -10 -5 -8 6 4 25 29 35 29
35 3z m-165 -59 c21 -16 18 -12 -7 13 -20 20 -31 37 -24 37 33 0 91 -88 72
-108 -12 -12 -80 32 -103 67 -27 39 -20 60 10 34 12 -9 36 -29 52 -43z m175
-44 c0 -28 -19 -63 -51 -95 -28 -29 -34 -31 -47 -18 -13 14 -12 21 7 60 12 25
29 48 37 51 10 4 13 2 8 -7 -4 -6 2 -4 12 6 22 21 34 22 34 3z m-211 -28 c11
-10 13 -10 7 0 -13 22 13 13 45 -16 18 -16 33 -40 34 -56 3 -25 1 -27 -23 -22
-27 7 -102 77 -102 96 0 14 23 13 39 -2z m195 -122 c13 -70 75 -173 137 -230
l60 -54 -43 -7 c-24 -3 -57 -9 -74 -11 -27 -5 -36 0 -78 47 -26 29 -67 82 -91
118 -23 36 -58 86 -76 110 l-33 44 39 -6 c22 -4 52 -16 67 -27 33 -24 38 -25
38 -4 0 24 19 54 34 54 8 0 17 -15 20 -34z m926 -2 l15 -29 45 23 c43 22 85
29 78 14 -11 -25 -168 -242 -199 -274 -36 -38 -40 -40 -81 -33 -113 17 -115
19 -63 53 57 36 127 145 156 240 14 48 27 50 49 6z m-585 -313 c22 -10 49 -29
60 -41 l20 -23 -25 7 c-14 4 -74 11 -135 16 -60 6 -123 13 -140 16 -21 4 -27
3 -20 -5 6 -6 51 -13 100 -16 101 -7 203 -24 210 -36 9 -14 -66 -31 -148 -32
-92 -1 -138 16 -191 72 -33 35 -32 36 54 50 94 15 171 12 215 -8z m408 7 c40
-6 74 -12 76 -14 11 -9 -46 -65 -86 -85 -39 -18 -63 -22 -129 -21 -45 0 -96 7
-115 15 l-34 15 30 12 c17 7 86 16 154 21 115 8 141 13 130 23 -7 6 -201 -14
-262 -28 -72 -16 -71 -3 3 42 61 36 108 41 233 20z m-263 -134 c43 -39 48 -51
24 -61 -9 -3 -27 5 -44 22 l-30 28 -24 -26 c-27 -29 -34 -31 -55 -18 -11 7 -5
18 29 50 24 23 48 41 52 41 4 0 26 -16 48 -36z"/>
<path d="M483 1800 c0 -25 2 -35 4 -22 2 12 2 32 0 45 -2 12 -4 2 -4 -23z"/>
<path d="M1600 1757 c0 -3 12 -12 26 -22 15 -9 23 -12 20 -6 -7 11 -46 35 -46
28z"/>
<path d="M1565 1740 c-3 -6 1 -7 9 -4 18 7 21 14 7 14 -6 0 -13 -4 -16 -10z"/>
<path d="M1560 1545 c-7 -9 -11 -17 -9 -20 3 -2 10 5 17 15 14 24 10 26 -8 5z"/>
<path d="M1570 1411 c-13 -13 -12 -14 4 -8 10 4 22 7 27 7 5 0 9 4 9 8 0 14
-25 10 -40 -7z"/>
<path d="M1622 1369 c15 -6 30 -19 33 -30 4 -10 11 -19 17 -19 6 0 5 7 -3 18
-21 27 -42 42 -58 41 -9 0 -4 -5 11 -10z"/>
<path d="M1635 1109 c-3 -4 -12 -6 -19 -3 -8 3 -16 2 -19 -3 -3 -4 15 -8 39
-8 24 0 44 3 44 6 0 11 -40 18 -45 8z"/>
<path d="M1556 1084 c-5 -14 -4 -15 9 -4 17 14 19 20 6 20 -5 0 -12 -7 -15
-16z"/>
<path d="M1595 1055 c-16 -13 -26 -27 -23 -31 4 -3 19 6 33 22 22 24 28 26 36
14 9 -13 10 -13 7 -1 -7 23 -21 22 -53 -4z"/>
<path d="M1635 910 c-3 -5 -1 -10 4 -10 6 0 11 5 11 10 0 6 -2 10 -4 10 -3 0
-8 -4 -11 -10z"/>
<path d="M1662 898 c2 -6 10 -14 16 -16 7 -2 10 2 6 12 -7 18 -28 22 -22 4z"/>
<path d="M435 1666 c10 -14 19 -26 22 -26 7 0 -17 39 -28 46 -6 3 -3 -5 6 -20z"/>
<path d="M529 1693 l-24 -28 28 24 c25 23 32 31 24 31 -2 0 -14 -12 -28 -27z"/>
<path d="M495 1649 c-4 -6 -5 -12 -2 -15 2 -3 7 2 10 11 7 17 1 20 -8 4z"/>
<path d="M770 1610 c-12 -8 -11 -10 8 -10 12 0 22 5 22 10 0 13 -11 13 -30 0z"/>
<path d="M830 1610 c0 -5 10 -10 23 -10 18 0 19 2 7 10 -19 13 -30 13 -30 0z"/>
<path d="M821 1574 c0 -11 3 -14 6 -6 3 7 2 16 -1 19 -3 4 -6 -2 -5 -13z"/>
<path d="M1220 1610 c-12 -8 -11 -10 8 -10 12 0 22 5 22 10 0 13 -11 13 -30 0z"/>
<path d="M1274 1595 c-4 -14 -4 -29 0 -32 3 -4 6 3 6 15 0 16 6 22 23 22 18 0
19 2 7 10 -23 15 -29 12 -36 -15z"/>
<path d="M410 1585 c13 -14 26 -25 28 -25 3 0 -5 11 -18 25 -13 14 -26 25 -28
25 -3 0 5 -11 18 -25z"/>
<path d="M400 1486 c0 -2 8 -10 18 -17 15 -13 16 -12 3 4 -13 16 -21 21 -21
13z"/>
<path d="M898 1373 c7 -3 16 -2 19 1 4 3 -2 6 -13 5 -11 0 -14 -3 -6 -6z"/>
<path d="M1131 1404 c0 -11 3 -14 6 -6 3 7 2 16 -1 19 -3 4 -6 -2 -5 -13z"/>
<path d="M519 1353 c-13 -16 -12 -17 4 -4 9 7 17 15 17 17 0 8 -8 3 -21 -13z"/>
<path d="M415 1360 c10 -11 20 -20 23 -20 3 0 -3 9 -13 20 -10 11 -20 20 -23
20 -3 0 3 -9 13 -20z"/>
<path d="M400 1267 c0 -2 15 -16 33 -33 l32 -29 -29 33 c-28 30 -36 37 -36 29z"/>
<path d="M1038 1160 c-4 -14 -8 -50 -8 -81 0 -53 -2 -57 -30 -69 -25 -10 -41
-9 -95 5 -85 23 -93 14 -13 -15 76 -28 85 -34 90 -65 4 -17 -7 -42 -33 -82
-21 -31 -36 -59 -34 -62 3 -2 6 -2 8 0 2 2 21 27 44 54 36 44 45 50 77 49 31
-1 42 -8 77 -52 56 -71 70 -66 19 7 -36 52 -40 62 -33 91 8 30 16 35 83 59 81
29 73 41 -11 17 -64 -20 -79 -20 -104 0 -16 12 -21 30 -25 92 -4 55 -7 70 -12
52z"/>
<path d="M390 1166 c0 -2 8 -10 18 -17 15 -13 16 -12 3 4 -13 16 -21 21 -21
13z"/>
<path d="M450 906 c0 -2 8 -10 18 -17 15 -13 16 -12 3 4 -13 16 -21 21 -21 13z"/>
</g>
</svg>
